<?xml version="1.0" encoding="UTF-8"?> <svg xmlns="http://www.w3.org/2000/svg" xmlns:xlink="http://www.w3.org/1999/xlink" version="1.1" id="Layer_1" x="0px" y="0px" viewBox="0 0 165 44.3" style="enable-background:new 0 0 165 44.3;" xml:space="preserve"> <style type="text/css"> .st0{fill:#B42426;} .st1{fill:#FFFFFF;} </style> <g> <g> <g> <g> <circle class="st0" cx="22.2" cy="22.2" r="22.2"></circle> </g> <g> <path class="st1" d="M41.6,19.1c-0.6-1.4-1.5-2.5-2.8-3.4c-1.5-1-3.1-1.7-4.8-2.1c-2.3-0.6-4.7-0.9-7.1-0.9 c2.1-0.2,3.9-1.7,4.3-3.8c-1.9,1.6-4.3,2.5-6.8,2.5c0.2-0.5,0.3-1.1,0.3-1.7c0-0.2,0-0.5-0.1-0.7c-1.4,1.5-3.3,2.4-5.3,2.6 c-1.3-0.3-2.7-0.3-4,0c-1.5,1.8-4.1,2.3-6.3,1.2c-2.2-0.8-4.6-0.4-6.4,1C4.5,13.8,6.3,14,8,14.5c1.3,0.9,2.9,1.2,4.4,0.8 c1.1-0.2,2.3-0.1,3.4,0.1c-1.9,0.5-3.9,0.8-5.9,0.9c-0.4,0.1-0.9,0.1-1.3-0.1c-0.2-0.2-0.4-0.4-0.4-0.6 c-0.5,0.1-0.8,0.5-0.8,0.9c0,0,0,0.1,0,0.1c0.2,0.3,0.5,0.5,0.8,0.7c1.3,0.7,2.8,1,4.2,0.8c2.7-1.1,5.7-1.4,8.6-0.8 c1.6,0.3,3.2,0.1,4.7-0.4c1.8-0.3,3.6-0.1,5.4,0.5c1.7,0.9,2.8,2.7,2.8,4.7c0,0.7-0.1,1.4-0.4,2c-1.4,2.1-3.3,3.7-5.5,4.7 c-0.4-1.1-1.2-2-2.2-2.5c-1.4-0.7-3-0.8-4.4-0.4c1.4,0,2.7,0.3,3.9,1c0.2,0.1,0.3,0.3,0.3,0.5c0,0.1,0,0.1,0,0.2 c-0.1,0.2-0.2,0.4-0.4,0.6c-0.2,0.1-0.5,0.1-0.7,0c-1-0.4-2-0.6-3.1-0.5c-1,0-1.9,0.4-2.6,1.1c1.6-0.5,3.3-0.4,4.8,0.4 c0.2,0.1,0.3,0.2,0.3,0.5c0,0.2-0.1,0.4-0.3,0.4l-1.5,0.3c-0.1-0.4-0.4-0.6-0.8-0.5c-0.4,0-0.6,0.3-0.6,0.7c0,0.1,0,0.1,0,0.2 c-1.7,0.3-3.4,0.2-5-0.3c-0.9-0.4-1.5-1.4-1.5-2.4c0-0.6,0.2-1.2,0.6-1.7c0.7-1,1.5-1.9,2.5-2.6c2.2-1.4,4.6-2.4,7.1-2.9 c-1.5,0.1-3,0.2-4.5,0.2c0-0.1,0-0.1,0-0.2c0-0.5-0.2-0.9-0.6-1.1c-1.2-0.6-2.5-0.3-3.4,0.7l1.3,0c0.2,0,0.3,0,0.5,0.1 c0.1,0.1,0.2,0.2,0.2,0.4c0,0.3-0.2,0.5-0.5,0.5c-2.2,0.9-4.2,2.2-6,3.8c-1.4-1.3-3.4-1.7-5.2-1.1l1.3,0.1 c0.4,0,0.8,0.1,1.1,0.4c0.3,0.3,0.4,0.6,0.4,1c0,0.2,0,0.4-0.1,0.6c-1.4-0.9-3.2-0.9-4.6-0.1c2-0.1,3.8,1.3,4.2,3.2 c0,0.2,0,0.5,0,0.7c0,1.1,0.3,2.1,0.9,3.1c1.2,1.4,2.9,2.3,4.8,2.5c3.6,0.6,7.2,0.6,10.8,0.1c4.1-0.6,8-2.2,11.3-4.7 c1.8-1.2,3.3-2.8,4.5-4.6c1-1.3,1.5-2.9,1.5-4.6C42,20.9,41.9,20,41.6,19.1z M18.9,13.6c-0.3,0.1-0.6,0.2-0.9,0.2 c-0.3,0-0.7-0.1-1-0.2c-0.1-0.1-0.2-0.2-0.3-0.2c0.1-0.1,0.2-0.2,0.3-0.3c0.3-0.1,0.6-0.2,1-0.2c0.3,0,0.7,0.1,1,0.2 c0.1,0.1,0.2,0.2,0.3,0.3C19.1,13.5,19,13.6,18.9,13.6z"></path> </g> </g> </g> <g> <g> <path class="st0" d="M162.6,41.2H50.2c-1.3,0-2.4-1.1-2.4-2.4V34c0-1.3,1.1-2.4,2.4-2.4h112.4c1.3,0,2.4,1.1,2.4,2.4v4.7 C165,40.1,163.9,41.2,162.6,41.2z"></path> </g> <g> <g> <g> <path class="st1" d="M52.5,33.7h0.8l2.3,5.2h-1.1L54,37.8h-2.3L51.2,39h-1L52.5,33.7z M53.6,37l-0.8-2.1L52,37H53.6z"></path> </g> <g> <path class="st1" d="M60,34.8c-0.1-0.1-0.2-0.2-0.4-0.3c-0.2-0.1-0.4-0.1-0.5-0.1c-0.1,0-0.2,0-0.3,0c-0.1,0-0.2,0.1-0.3,0.1 c-0.1,0.1-0.2,0.1-0.2,0.2c-0.1,0.1-0.1,0.2-0.1,0.3c0,0.1,0,0.2,0.1,0.3c0,0.1,0.1,0.2,0.2,0.2c0.1,0.1,0.2,0.1,0.3,0.2 c0.1,0,0.3,0.1,0.4,0.1c0.2,0.1,0.3,0.1,0.5,0.2c0.2,0.1,0.3,0.2,0.5,0.3c0.2,0.1,0.3,0.3,0.4,0.4c0.1,0.2,0.1,0.4,0.1,0.6 c0,0.3-0.1,0.5-0.2,0.7c-0.1,0.2-0.2,0.4-0.4,0.5c-0.2,0.1-0.4,0.2-0.6,0.3c-0.2,0.1-0.5,0.1-0.7,0.1c-0.3,0-0.7-0.1-1-0.2 c-0.3-0.1-0.6-0.3-0.8-0.6l0.7-0.6c0.1,0.2,0.3,0.3,0.5,0.4c0.2,0.1,0.4,0.2,0.6,0.2c0.1,0,0.2,0,0.3,0c0.1,0,0.2-0.1,0.3-0.1 c0.1-0.1,0.2-0.1,0.2-0.2c0.1-0.1,0.1-0.2,0.1-0.4c0-0.1,0-0.3-0.1-0.3c-0.1-0.1-0.2-0.2-0.3-0.2c-0.1-0.1-0.2-0.1-0.4-0.2 c-0.1,0-0.3-0.1-0.5-0.2c-0.2-0.1-0.3-0.1-0.5-0.2c-0.2-0.1-0.3-0.2-0.4-0.3c-0.1-0.1-0.2-0.3-0.3-0.4 c-0.1-0.2-0.1-0.4-0.1-0.6c0-0.3,0.1-0.5,0.2-0.7c0.1-0.2,0.3-0.4,0.4-0.5c0.2-0.1,0.4-0.2,0.6-0.3c0.2-0.1,0.5-0.1,0.7-0.1 c0.3,0,0.5,0,0.8,0.1c0.3,0.1,0.5,0.2,0.7,0.4L60,34.8z"></path> </g> <g> <path class="st1" d="M62.9,33.7h0.9V39h-0.9V33.7z"></path> </g> <g> <path class="st1" d="M68,33.7h0.8L71,39H70l-0.5-1.2h-2.3L66.7,39h-1L68,33.7z M69.2,37l-0.8-2.1L67.5,37H69.2z"></path> </g> <g> <path class="st1" d="M72.9,33.7h1.2l2.4,3.9h0v-3.9h0.9V39h-1.2l-2.5-4h0v4h-0.9V33.7z"></path> </g> <g> <path class="st1" d="M83.1,33.7h0.9V36h0l2.2-2.3h1.3l-2.4,2.4l2.6,2.8h-1.3l-2.3-2.6h0V39h-0.9V33.7z"></path> </g> <g> <path class="st1" d="M89.5,33.7h0.9V39h-0.9V33.7z"></path> </g> <g> <path class="st1" d="M94,34.6h-1.6v-0.8h4.1v0.8h-1.6V39H94V34.6z"></path> </g> <g> <path class="st1" d="M102,35c-0.1-0.2-0.3-0.3-0.5-0.4c-0.2-0.1-0.4-0.1-0.7-0.1c-0.3,0-0.5,0-0.7,0.1 c-0.2,0.1-0.4,0.2-0.6,0.4c-0.2,0.2-0.3,0.4-0.4,0.6c-0.1,0.2-0.1,0.5-0.1,0.8c0,0.3,0,0.5,0.1,0.8c0.1,0.2,0.2,0.4,0.4,0.6 c0.2,0.2,0.3,0.3,0.6,0.4c0.2,0.1,0.5,0.1,0.7,0.1c0.3,0,0.5-0.1,0.7-0.2c0.2-0.1,0.4-0.3,0.5-0.4l0.7,0.5 c-0.2,0.3-0.5,0.5-0.8,0.7c-0.3,0.2-0.7,0.2-1.2,0.2c-0.4,0-0.8-0.1-1.1-0.2c-0.3-0.1-0.6-0.3-0.9-0.6 c-0.2-0.2-0.4-0.5-0.6-0.9c-0.1-0.3-0.2-0.7-0.2-1.1c0-0.4,0.1-0.8,0.2-1.1s0.3-0.6,0.6-0.9c0.3-0.2,0.6-0.4,0.9-0.5 c0.3-0.1,0.7-0.2,1.1-0.2c0.2,0,0.3,0,0.5,0c0.2,0,0.4,0.1,0.5,0.1c0.2,0.1,0.3,0.1,0.5,0.2c0.1,0.1,0.3,0.2,0.4,0.4L102,35z"></path> </g> <g> <path class="st1" d="M104.7,33.7h0.9v2.1h2.4v-2.1h0.9V39h-0.9v-2.3h-2.4V39h-0.9V33.7z"></path> </g> <g> <path class="st1" d="M111.5,33.7h3.5v0.8h-2.5v1.3h2.4v0.8h-2.4v1.5h2.7V39h-3.6V33.7z"></path> </g> <g> <path class="st1" d="M117.3,33.7h1.2l2.4,3.9h0v-3.9h0.9V39h-1.2l-2.5-4h0v4h-0.9V33.7z"></path> </g> <g> <path class="st1" d="M129.1,36.4v-1.6h0.8v1.6h1.6v0.8h-1.6v1.6h-0.8v-1.6h-1.6v-0.8H129.1z"></path> </g> <g> <path class="st1" d="M139.6,34.8c-0.1-0.1-0.2-0.2-0.4-0.3c-0.2-0.1-0.4-0.1-0.5-0.1c-0.1,0-0.2,0-0.3,0 c-0.1,0-0.2,0.1-0.3,0.1s-0.2,0.1-0.2,0.2c-0.1,0.1-0.1,0.2-0.1,0.3c0,0.1,0,0.2,0.1,0.3c0.1,0.1,0.1,0.2,0.2,0.2 c0.1,0.1,0.2,0.1,0.3,0.2c0.1,0,0.3,0.1,0.4,0.1c0.2,0.1,0.3,0.1,0.5,0.2c0.2,0.1,0.3,0.2,0.5,0.3c0.1,0.1,0.3,0.3,0.4,0.4 c0.1,0.2,0.1,0.4,0.1,0.6c0,0.3-0.1,0.5-0.2,0.7c-0.1,0.2-0.2,0.4-0.4,0.5c-0.2,0.1-0.4,0.2-0.6,0.3c-0.2,0.1-0.5,0.1-0.7,0.1 c-0.3,0-0.7-0.1-1-0.2c-0.3-0.1-0.6-0.3-0.8-0.6l0.7-0.6c0.1,0.2,0.3,0.3,0.5,0.4c0.2,0.1,0.4,0.2,0.6,0.2c0.1,0,0.2,0,0.3,0 c0.1,0,0.2-0.1,0.3-0.1c0.1-0.1,0.2-0.1,0.2-0.2c0.1-0.1,0.1-0.2,0.1-0.4c0-0.1,0-0.3-0.1-0.3c-0.1-0.1-0.1-0.2-0.3-0.2 c-0.1-0.1-0.2-0.1-0.4-0.2c-0.1,0-0.3-0.1-0.5-0.2c-0.2-0.1-0.3-0.1-0.5-0.2c-0.2-0.1-0.3-0.2-0.4-0.3 c-0.1-0.1-0.2-0.3-0.3-0.4c-0.1-0.2-0.1-0.4-0.1-0.6c0-0.3,0.1-0.5,0.2-0.7c0.1-0.2,0.3-0.4,0.4-0.5c0.2-0.1,0.4-0.2,0.6-0.3 c0.2-0.1,0.5-0.1,0.7-0.1c0.3,0,0.5,0,0.8,0.1c0.3,0.1,0.5,0.2,0.7,0.4L139.6,34.8z"></path> </g> <g> <path class="st1" d="M146.7,37.1c0,0.3-0.1,0.6-0.2,0.9c-0.1,0.3-0.3,0.5-0.4,0.6c-0.2,0.2-0.4,0.3-0.7,0.4 c-0.3,0.1-0.5,0.1-0.8,0.1c-0.3,0-0.6,0-0.8-0.1c-0.3-0.1-0.5-0.2-0.7-0.4c-0.2-0.2-0.3-0.4-0.4-0.6c-0.1-0.3-0.2-0.5-0.2-0.9 v-3.3h0.9V37c0,0.2,0,0.3,0.1,0.5c0,0.1,0.1,0.3,0.2,0.4c0.1,0.1,0.2,0.2,0.4,0.3c0.2,0.1,0.3,0.1,0.6,0.1c0.2,0,0.4,0,0.6-0.1 c0.1-0.1,0.3-0.2,0.4-0.3c0.1-0.1,0.2-0.3,0.2-0.4c0-0.1,0.1-0.3,0.1-0.5v-3.3h0.9V37.1z"></path> </g> <g> <path class="st1" d="M151.8,34.8c-0.1-0.1-0.2-0.2-0.4-0.3c-0.2-0.1-0.4-0.1-0.5-0.1c-0.1,0-0.2,0-0.3,0 c-0.1,0-0.2,0.1-0.3,0.1s-0.2,0.1-0.2,0.2c-0.1,0.1-0.1,0.2-0.1,0.3c0,0.1,0,0.2,0.1,0.3c0.1,0.1,0.1,0.2,0.2,0.2 c0.1,0.1,0.2,0.1,0.3,0.2c0.1,0,0.3,0.1,0.4,0.1c0.2,0.1,0.3,0.1,0.5,0.2c0.2,0.1,0.3,0.2,0.5,0.3c0.1,0.1,0.3,0.3,0.4,0.4 c0.1,0.2,0.1,0.4,0.1,0.6c0,0.3-0.1,0.5-0.2,0.7c-0.1,0.2-0.2,0.4-0.4,0.5c-0.2,0.1-0.4,0.2-0.6,0.3c-0.2,0.1-0.5,0.1-0.7,0.1 c-0.3,0-0.7-0.1-1-0.2c-0.3-0.1-0.6-0.3-0.8-0.6l0.7-0.6c0.1,0.2,0.3,0.3,0.5,0.4c0.2,0.1,0.4,0.2,0.6,0.2c0.1,0,0.2,0,0.3,0 c0.1,0,0.2-0.1,0.3-0.1c0.1-0.1,0.2-0.1,0.2-0.2c0.1-0.1,0.1-0.2,0.1-0.4c0-0.1,0-0.3-0.1-0.3c-0.1-0.1-0.1-0.2-0.3-0.2 c-0.1-0.1-0.2-0.1-0.4-0.2c-0.1,0-0.3-0.1-0.5-0.2c-0.2-0.1-0.3-0.1-0.5-0.2c-0.2-0.1-0.3-0.2-0.4-0.3 c-0.1-0.1-0.2-0.3-0.3-0.4c-0.1-0.2-0.1-0.4-0.1-0.6c0-0.3,0.1-0.5,0.2-0.7c0.1-0.2,0.3-0.4,0.4-0.5c0.2-0.1,0.4-0.2,0.6-0.3 c0.2-0.1,0.5-0.1,0.7-0.1c0.3,0,0.5,0,0.8,0.1c0.3,0.1,0.5,0.2,0.7,0.4L151.8,34.8z"></path> </g> <g> <path class="st1" d="M154.7,33.7h0.9v2.1h2.4v-2.1h0.9V39h-0.9v-2.3h-2.4V39h-0.9V33.7z"></path> </g> <g> <path class="st1" d="M161.5,33.7h0.9V39h-0.9V33.7z"></path> </g> </g> </g> <g> <g> <path class="st1" d="M64.6,10.6c0-3.7-3.9-3.9-5.1-3.9l-6.4,0v9h4.5C62.5,15.7,64.6,14.2,64.6,10.6z M55.7,8.8h2.6 c1.8,0,2.7,0.3,3.1,0.6c0.3,0.2,0.7,0.6,0.7,1.6c0,0.8-0.3,1.3-0.8,1.7c-0.6,0.4-1.5,0.7-2.7,0.7h-3V8.8z"></path> <path class="st1" d="M66.2,15.8c0.6-0.7,1-1.4,1.1-1.7c0.6-1.3,0.6-2.6,0.6-3.6c0-1.2-0.6-3.8-2.6-5.2c-0.8-0.5-1.6-0.9-2.6-1.2 c-0.9-0.2-1.9-0.3-2.8-0.3h-9.2h-0.8v0.8v23.7V29h0.8h8.5c1.2,0,2.3-0.1,3.5-0.4c1.2-0.3,2.2-0.7,3.1-1.3 c0.9-0.6,1.7-1.4,2.3-2.4c0.6-1,0.9-2.2,0.9-3.7C68.9,19,68,17.1,66.2,15.8z M60.1,26.8h-7.3c-0.2,0-0.3-0.1-0.3-0.3V6.4 c0-0.2,0.1-0.3,0.3-0.3l6.7,0c1.3,0,5.7,0.3,5.7,4.6c0,2.8-1.2,4.5-3.8,5.2l-0.2,0.1l0.2,0c3.4,0.6,4.8,2.4,4.8,5.8 C66.2,25.7,62.3,26.8,60.1,26.8z"></path> <path class="st1" d="M57.6,16.3h-4.5v9.9h7c0.2,0,5.5-0.1,5.5-4.4C65.6,18.3,64.3,16.3,57.6,16.3z M62.8,22.6 c-0.3,0.4-0.6,0.6-1,0.8c-0.4,0.2-0.9,0.3-1.5,0.4c-0.6,0.1-1.1,0.1-1.6,0.1h-3v-5.3h3.2c1.6,0,2.7,0.2,3.5,0.6 c0.8,0.5,0.9,1.3,0.9,1.9C63.1,21.8,63,22.2,62.8,22.6z"></path> </g> <path class="st1" d="M77.3,23.7v-5.1h10.1h0.8v-0.8v-3.5v-0.8h-0.8H77.3V9H88h0.8V8.2V4.6V3.8H88H72.3h-0.8v0.8v23.7V29h0.8h16.3 h0.8v-0.8v-3.7v-0.8h-0.8H77.3z M86.9,26.8H74.3c-0.2,0-0.3-0.1-0.3-0.3V6.4c0-0.2,0.1-0.3,0.3-0.3h11.8c0.2,0,0.3,0.1,0.3,0.3 s-0.1,0.3-0.3,0.3H74.6v9h11c0.2,0,0.3,0.1,0.3,0.3s-0.1,0.3-0.3,0.3h-11v9.9h12.3c0.2,0,0.3,0.1,0.3,0.3S87.1,26.8,86.9,26.8z"></path> <path class="st1" d="M109.4,3.8h-0.8v0.8v13.9L96.8,4.1l-0.2-0.3h-0.4h-3.5h-0.8v0.8v23.7V29h0.8h4.2h0.8v-0.8V14.4l11.8,14.3 l0.2,0.3h0.4h3.5h0.8v-0.8V4.6V3.8h-0.8H109.4z M111.7,26.5c0,0.1-0.1,0.2-0.2,0.3c-0.1,0-0.3,0-0.3-0.1l-16-19.5v19.3 c0,0.2-0.1,0.3-0.3,0.3c-0.2,0-0.3-0.1-0.3-0.3V6.4c0-0.1,0.1-0.2,0.2-0.3c0.1,0,0.3,0,0.3,0.1l16,19.4V6.4 c0-0.2,0.1-0.3,0.3-0.3c0.2,0,0.3,0.1,0.3,0.3V26.5z"></path> <path class="st1" d="M117,3.8h-0.8v0.8v3.7V9h0.8h6.5v19.2V29h0.8h4.2h0.8v-0.8V9h6.5h0.8V8.2V4.6V3.8h-0.8H117z M134,6.7h-7.3 v19.8c0,0.2-0.1,0.3-0.3,0.3s-0.3-0.1-0.3-0.3V6.7h-7.7c-0.2,0-0.3-0.1-0.3-0.3s0.1-0.3,0.3-0.3H134c0.2,0,0.3,0.1,0.3,0.3 S134.2,6.7,134,6.7z"></path> <g> <path class="st1" d="M162.2,10.9c-0.7-1.6-1.6-3-2.8-4.2c-1.2-1.1-2.7-2-4.3-2.6c-1.6-0.6-3.5-0.9-5.4-0.9 c-1.9,0-3.7,0.3-5.3,0.9c-1.6,0.6-3.1,1.5-4.3,2.6c-1.2,1.1-2.2,2.5-2.8,4.2c-0.7,1.6-1,3.4-1,5.4c0,1.9,0.3,3.8,1,5.4 c0.7,1.6,1.6,3,2.8,4.2c1.2,1.2,2.6,2.1,4.3,2.7c1.6,0.6,3.4,1,5.4,1c1.9,0,3.8-0.3,5.4-1c1.7-0.6,3.1-1.6,4.3-2.7 c1.2-1.2,2.2-2.6,2.8-4.2c0.7-1.6,1-3.4,1-5.4C163.3,14.3,162.9,12.5,162.2,10.9z M149.7,27.2c-6.2,0-10.6-4.5-10.6-10.9 c0-6.4,4.4-10.9,10.6-10.9c6.2,0,10.6,4.5,10.6,10.9C160.3,22.7,155.9,27.2,149.7,27.2z"></path> <path class="st1" d="M149.7,6.1c-5.9,0-10,4.2-10,10.3c0,6,4.1,10.3,10,10.3c5.9,0,10-4.2,10-10.3 C159.7,10.3,155.6,6.1,149.7,6.1z M156.5,19.6c-0.4,1-0.9,1.8-1.5,2.5c-0.6,0.7-1.4,1.2-2.3,1.6c-0.9,0.4-1.9,0.6-3,0.6 c-1.1,0-2.1-0.2-3-0.6c-0.9-0.4-1.7-0.9-2.3-1.6c-0.7-0.7-1.2-1.5-1.5-2.5c-0.4-1-0.5-2.1-0.5-3.2c0-1.1,0.2-2.2,0.5-3.1 c0.4-0.9,0.9-1.8,1.5-2.5c0.6-0.7,1.4-1.3,2.3-1.7c0.9-0.4,1.9-0.6,3-0.6c1.1,0,2.1,0.2,3,0.6c0.9,0.4,1.7,1,2.3,1.7 c0.6,0.7,1.1,1.5,1.5,2.5c0.4,1,0.5,2,0.5,3.1C157.1,17.5,156.9,18.6,156.5,19.6z"></path> </g> </g> </g> </g> </svg> 