<svg id="レイヤー_1" data-name="レイヤー 1" xmlns="http://www.w3.org/2000/svg" xmlns:xlink="http://www.w3.org/1999/xlink" viewBox="0 0 587.94 564.13"><defs><style>.cls-1{fill:none;}.cls-2{clip-path:url(#clip-path);}.cls-3{fill:#fbf4e7;}.cls-4{fill:#b35946;}.cls-5{fill:#933e39;}.cls-6{fill:#ac6a5b;}.cls-7{fill:#fff;}.cls-8{fill:#b3b1a8;}.cls-9{fill:#c4907f;}.cls-10{fill:#fef2e2;}.cls-11{fill:#f5a67e;}.cls-12{fill:#4a3017;}</style><clipPath id="clip-path"><rect class="cls-1" width="587.94" height="564.13"/></clipPath></defs><g class="cls-2"><path class="cls-3" d="M48.3,173.78,201.56,36.11c18.31-19.66,46.79-14.24,46.79-14.24L560.3,72.73,575.22,363c2.71,27.8-8.82,33.9-8.82,33.9L396.86,548.11c-17.63,17.63-33.22,13.56-33.22,13.56L62.54,510.14c-25.09-4.07-22.38-23.06-22.38-23.06L26.6,221.93s-6.1-31.2,21.7-48.15Z"/></g><path class="cls-3" d="M23.13,205.55l326.45,54.28s23.7,5.36,42.81-12.23S558.28,97.76,572.81,84.76s6.12-24.46-22.93-28.28S268.54,12.13,251,9.84s-45.1-6.12-67.27,18.35S33.83,165.8,20.07,175.74,1,203.26,23.13,205.55Z"/><path class="cls-4" d="M156.8,186c12.21,0,28.48-12.2,40.69-16.27,28.48-8.14,48.83,24.41,73.24,12.2,16.28-8.13,8.14-44.75,36.62-57,36.62-12.21,61,12.21,89.51,24.41,36.62,20.35,61-16.27,85.45-44.75A15,15,0,0,0,484.43,94c-3.84-.13-7.64-.16-11.27-.09-74.26-2-88-15.66-134.79-26.45C319,63,291.58,66.34,272.76,66c-39.16-10.68-50.83,2.55-73.23,14.24C177.88,91,161.46,112.31,142.32,131c-10.39,19.5-20.85,24.83-31.4,28.82,9.14,17,30.67,28.73,45.88,26.19Z"/><path class="cls-5" d="M538.13,117c-1.22-16.52-28.55-22.15-53.7-23a15,15,0,0,1-2.12,10.59c-24.41,28.48-48.83,65.1-85.45,44.75C368.38,137.16,344,112.74,307.35,125c-28.48,12.21-20.34,48.83-36.62,57-24.41,12.21-44.76-20.34-73.24-12.2C185.28,173.78,169,186,156.8,186c-15.21,2.54-36.74-9.15-45.88-26.19-9.87,3.72-19.83,6.26-29.9,18.06-5,3.23-16.45,17.45-21.87,20.34a29.67,29.67,0,0,0-7,6.71,23.24,23.24,0,0,0-.85,2.56c109.48,11.66,215.18,71.07,317.1,43.63,66.24-18.4,115.84-83.4,169.87-131.77l-.12-2.28Z"/><path class="cls-6" d="M550.84,364.23,538.25,119.32c-54,48.37-103.63,113.37-169.87,131.77-101.92,27.44-207.62-32-317.1-43.63a25.72,25.72,0,0,0-.68,10,15.64,15.64,0,0,1,.38,3.26l13.55,265c.56.14,1.26.29,2.13.43L368,537.66c1,0,5.4-.65,11.56-6.81.33-.33.67-.65,1-1L550.37,378.47c.48-1.57,1.29-5.53.55-13.12,0-.37-.07-.75-.08-1.12Z"/><path class="cls-7" d="M230.62,14.24c-17.78,0-31.26,5.73-42.42,18C164.87,58,37.17,170.92,23.64,180.69c-6.81,4.92-10.13,11.32-9.3,14.43.59,2.18,4.11,3.81,9.42,4.36l326.82,54.33a38.23,38.23,0,0,0,7.65.69,43.72,43.72,0,0,0,30-11.39C407,225.9,552.56,94.69,568.74,80.21c3.59-3.21,5.4-6.21,4.84-8-.77-2.49-6.79-7.32-24.5-9.65-16.25-2.14-101.76-15.67-177.2-27.6-58.62-9.28-114-18-121.71-19l-.44-.06a146.17,146.17,0,0,0-19.11-1.59ZM358.23,266.7a48.16,48.16,0,0,1-10-.92L22.13,211.57c-14.29-1.46-18.42-9-19.58-13.3-2.33-8.73,3.27-19.77,14-27.48C30.92,160.37,158.1,47.32,179.16,24.09,192.6,9.25,209.44,2,230.62,2a156.23,156.23,0,0,1,20.69,1.7l.43.06c7.88,1,60.78,9.39,122.05,19.08,75.37,11.92,160.79,25.44,176.89,27.55,20,2.64,31.66,8.75,34.56,18.15,1.46,4.74,1.2,12.19-8.36,20.74C560.71,103.78,415.21,234.9,396.52,252.09a55.69,55.69,0,0,1-38.29,14.61Z"/><g class="cls-2"><path class="cls-8" d="M368,564.13a20,20,0,0,1-4.83-.49L62.2,512.14C35.46,507.81,38.12,487,38.15,486.79L24.57,222h0a40.4,40.4,0,0,1-.57-6.55,2,2,0,0,1,2-2.07,2.18,2.18,0,0,1,2.07,2,39.07,39.07,0,0,0,.53,6.12L42.19,487c-.11,1.07-2,17.46,20.68,21.15L364,559.67c.76.18,14.94,3.5,31.45-13l169.62-151.3a1.6,1.6,0,0,1,.4-.28c.08,0,10.26-6.11,7.74-31.91L559.85,103.52a2,2,0,0,1,1.92-2.13,2,2,0,0,1,2.14,1.92l13.34,259.56c2.61,26.8-7.8,34.52-9.64,35.66L398.22,549.63c-12.45,12.45-24,14.5-30.26,14.5Z"/><path class="cls-8" d="M230.62,16.28c-17.17,0-30.17,5.52-40.91,17.37C166.33,59.44,38.39,172.55,24.83,182.34c-6.58,4.75-9,10.42-8.52,12.25.22.83,2.49,2.34,7.66,2.87l326.94,54.35c4.17.82,21.79,2.86,36-10.2C405.71,224.29,551.24,93.14,567.39,78.7c3.91-3.5,4.34-5.59,4.24-5.93-.43-1.41-5.56-6-22.81-8.23C532.48,62.39,447,48.87,371.56,36.94l-1-.16c-58.12-9.19-113-17.88-120.66-18.87l-.44-.06a143.66,143.66,0,0,0-18.84-1.57ZM358.23,256.53a42.23,42.23,0,0,1-8-.71L23.42,201.49c-6.24-.64-10.21-2.72-11-5.85-1.19-4.46,3.14-11.59,10.07-16.6,13.5-9.75,141-122.43,164.24-148.12,11.57-12.77,25.53-18.71,43.93-18.71A146.85,146.85,0,0,1,250,13.81l.48.06c7.69,1,62.61,9.69,120.76,18.89l1,.16c75.4,11.93,160.86,25.45,177.15,27.59,17.49,2.3,25,7.23,26.17,11.07,1.12,3.61-2.92,7.91-5.42,10.15C554,96.17,408.46,227.29,389.64,244.61a45.75,45.75,0,0,1-31.41,11.92ZM230.62,4.07c-20.58,0-36.92,7-50,21.38-21.11,23.28-148.53,136.55-163,147-10,7.22-15.29,17.39-13.17,25.3,1,3.83,4.7,10.47,17.82,11.81l326.22,54.23a47,47,0,0,0,9.67.89,53.71,53.71,0,0,0,36.91-14.07C413.9,233.33,558.66,102.89,575.52,87.79c6.93-6.2,9.62-12.64,7.78-18.62-2.65-8.58-13.72-14.21-32.89-16.73C534.23,50.31,448.83,36.8,373.47,24.88l-1.11-.17C311.69,15.11,259.28,6.82,251.48,5.8l-.44,0a155,155,0,0,0-20.42-1.68ZM358.23,268.74a50.13,50.13,0,0,1-10.45-1l-326-54.19C6.37,212,1.88,203.64.59,198.79-2,189.26,4,177.34,15.3,169.14,29.7,158.75,156.63,45.91,177.65,22.72,191.5,7.43,208.83,0,230.62,0a159.32,159.32,0,0,1,20.95,1.71l.44.06c7.85,1,60.28,9.32,121,18.92l1.1.17c75.33,11.92,160.72,25.43,176.84,27.55C571.83,51.16,584,57.74,587.18,68c1.64,5.31,1.42,13.59-8.95,22.85-16.85,15.1-161.58,145.52-180.33,162.77a57.72,57.72,0,0,1-39.67,15.15Z"/></g><polygon class="cls-9" points="375.66 510.8 361.44 511.4 352.03 289.94 366.25 289.33 375.66 510.8 375.66 510.8"/><path class="cls-10" d="M217.84,312.12c-22.7-6.49-45.38,5.14-64,22.47a154.27,154.27,0,0,0-13.21,14c-16.73,26.5-8.8,67.52,16.13,89.68,32.55,24.42,105.79,12.21,118-36.62,8.14-40.69-24.41-77.31-57-89.51Z"/><path class="cls-7" d="M153.88,334.59a49.78,49.78,0,0,0-13.21,14,154.27,154.27,0,0,1,13.21-14Z"/><path class="cls-11" d="M274.8,401.63c-12.21,48.83-85.45,61-118,36.62-24.93-22.16-32.86-63.18-16.13-89.68a2.09,2.09,0,0,0-.14.17,2.09,2.09,0,0,1,.14-.17,49.78,49.78,0,0,1,13.21-14c18.58-17.33,41.26-29,64-22.47,32.55,12.2,65.1,48.82,57,89.51Zm48.08-52.46c-12.1-23.86-33.87-42.58-55.55-60.56L130.15,268.37c-23.63,13.45-41.52,34.35-48.08,57.75l4,73.56c6.49,22.31,17.57,43.82,33.67,60.67L259,484.52c29.51-11.79,54.58-33.15,66.65-62l-2.73-73.31Z"/><path class="cls-10" d="M325.61,422.48c-12.07,28.89-37.14,50.25-66.65,62l69.41,12.05-2.76-74.09Z"/><path class="cls-10" d="M89.16,455l30.62,5.31C103.68,443.5,92.6,422,86.11,399.68l3,55.36Z"/><path class="cls-10" d="M130.15,268.37l-51.67-7.62,3.59,65.37c6.56-23.4,24.45-44.3,48.08-57.75Z"/><path class="cls-10" d="M320.92,296.52l-53.59-7.91c21.68,18,43.45,36.7,55.55,60.56l-2-52.65Z"/><path class="cls-12" d="M175.89,354.3l-1.48-49.66-7.63-.78,1.49,49.65,7.62.79Zm60.43-24.1.23,7.94-17-1.76A129,129,0,0,0,239,365.28l-5.23,7.56a141.34,141.34,0,0,1-18-28l.93,31.18-9.23-1-.93-31.08a97,97,0,0,1-17.87,24.24l-5.16-5.27-15-1.54.16,5.27-9-.94-2.12-70.91L183,297.43l1.82,60.73a88.91,88.91,0,0,0,17.62-23.56l-16.14-1.67L186,325l20,2.07-.41-13.49L187,311.64l-.24-7.95,18.64,1.93L205,294.46l9.24,1,.33,11.16,19.73,2,.23,7.95-19.72-2,.4,13.49,21.08,2.18Z"/><path class="cls-12" d="M216.2,410.82l.17,5.72,14,1.45-.17-5.72-14-1.45Zm-.37-12.23.18,6.07,14,1.45-.18-6.07-14-1.45ZM197.7,444l.17,5.71,30.49,3.15-.17-5.71L197.7,444Zm-.18-6.07L228,441.07l-.16-5.27-30.49-3.15.16,5.27ZM194,414.22l13.81,1.43-.17-5.72-13.81-1.42.17,5.71Zm13.27-16.53-13.81-1.42.19,6.07,13.8,1.43-.18-6.08Zm-9.15,58.81.11,3.48-8.79-.91-1-34.57,48.51,5,1,34.57-9.23-1-.11-3.49-30.49-3.14Zm-3.93-35.94-8.61-.89-.93-31.08,11.75,1.21c-1.88-3-3.71-5.69-5.52-8.13l8.37-1.28q3.45,4.73,6.92,10.42l11.3,1.18a82.19,82.19,0,0,0,5.81-9l8.75,2.69a81.64,81.64,0,0,1-4.69,7.35l11.38,1.18.93,31.08-45.46-4.71Zm-18.69,20.5L174,391.4l-5.47-.56L170,440.5l5.48.56Zm-5.24,7.29.16,5.27-8.79-.91-2.12-70.91,22.6,2.34,2,65.65-13.81-1.44Z"/></svg>