<svg width="920" height="559" viewBox="0 0 920 559" fill="none" xmlns="http://www.w3.org/2000/svg">
<g clip-path="url(#clip0_260_10205)">
<path d="M285.607 214.085V232.874L635.142 228.37L476.135 223.479L635.142 217.889L285.607 214.085Z" fill="#0083BF"/>
<path d="M284.985 330.932L452.299 336.522L284.985 341.413L634.83 345.916V327.127L284.985 330.932Z" fill="#7EBC42"/>
<path d="M343.604 243.744C339.179 241.803 334.287 240.716 329.163 240.638L330.638 269.209L343.604 243.744Z" fill="#0083BF"/>
<path d="M327.532 240.638C322.408 240.716 317.594 241.803 313.091 243.666L326.057 269.132L327.532 240.638Z" fill="#0083BF"/>
<path d="M356.957 253.137C353.619 249.488 349.582 246.537 345.079 244.441L334.83 271.072L356.957 253.137Z" fill="#0083BF"/>
<path d="M311.616 244.363C307.113 246.537 303.153 249.41 299.737 253.059L321.787 270.916L311.616 244.363Z" fill="#0083BF"/>
<path d="M366.817 283.107C366.973 283.107 367.128 283.185 367.128 283.185C367.283 281.942 367.283 280.7 367.283 279.458C367.283 275.731 366.74 272.082 365.731 268.666L339.333 278.759L366.817 283.107Z" fill="#0083BF"/>
<path d="M365.265 267.112C363.712 262.376 361.15 258.106 358.044 254.379L337.936 274.488L365.265 267.112Z" fill="#0083BF"/>
<path d="M289.799 283.029L317.283 278.759L290.886 268.666C289.876 272.082 289.333 275.731 289.333 279.458C289.333 280.7 289.411 281.942 289.488 283.107C289.488 283.107 289.644 283.107 289.799 283.029Z" fill="#0083BF"/>
<path d="M298.572 254.379C295.389 258.106 292.904 262.376 291.352 267.112L318.681 274.488L298.572 254.379Z" fill="#0083BF"/>
<path d="M311.693 298.866C307.501 300.885 303.386 303.137 299.504 305.621C302.454 308.882 305.948 311.599 309.83 313.696C313.634 310.59 317.905 307.64 322.563 304.767C319.069 302.671 315.42 300.652 311.693 298.866Z" fill="#7EBC42"/>
<path d="M291.041 290.714C292.128 294.363 293.836 297.934 295.932 301.117C299.116 299.487 302.532 297.779 306.103 296.304C301.134 294.13 296.01 292.266 291.041 290.714Z" fill="#7EBC42"/>
<path d="M289.565 283.183C289.643 284.347 289.876 285.434 290.031 286.599C290.108 286.909 290.108 287.142 290.186 287.453C291.428 287.763 292.748 288.074 293.913 288.385C300.279 290.015 306.18 291.878 311.692 293.975C313.944 293.121 316.273 292.344 318.602 291.49C319.922 291.024 321.32 290.636 322.639 290.17C317.903 288.773 313.323 287.53 308.742 286.521C301.987 284.968 295.621 283.881 289.876 283.027C289.798 283.027 289.565 282.95 289.487 282.95C289.487 283.105 289.487 283.183 289.565 283.183Z" fill="#7EBC42"/>
<path d="M366.895 283.185C361.072 283.961 354.706 285.126 347.951 286.601C343.448 287.61 338.79 288.853 334.054 290.25C335.451 290.638 336.771 291.104 338.091 291.57C340.498 292.346 342.749 293.2 345.001 294.054C350.436 291.958 356.414 290.095 362.78 288.464C364.023 288.154 365.187 287.843 366.429 287.533C366.507 287.222 366.585 286.989 366.585 286.679C366.818 285.592 366.973 284.427 367.051 283.262V283.185C367.051 283.185 366.973 283.185 366.895 283.185Z" fill="#7EBC42"/>
<path d="M334.054 304.767C338.79 307.64 342.982 310.59 346.787 313.696C350.669 311.599 354.162 308.882 357.113 305.621C353.153 303.137 349.038 300.885 344.923 298.866C341.274 300.652 337.625 302.593 334.054 304.767Z" fill="#7EBC42"/>
<path d="M360.762 301.042C362.858 297.936 364.489 294.442 365.576 290.793C360.607 292.346 355.638 294.209 350.669 296.306C354.318 297.781 357.657 299.334 360.762 301.042Z" fill="#7EBC42"/>
<path d="M318.06 317.036C321.32 317.967 324.814 318.433 328.386 318.433C331.957 318.433 335.373 317.967 338.712 317.036C335.451 314.008 332.035 311.213 328.386 308.573C324.737 311.135 321.243 313.93 318.06 317.036Z" fill="#7EBC42"/>
<path d="M339.333 296.228C335.684 294.675 332.035 293.278 328.386 292.036C324.737 293.278 321.088 294.675 317.438 296.228C321.32 297.859 324.97 299.644 328.386 301.508C331.802 299.644 335.451 297.936 339.333 296.228Z" fill="#7EBC42"/>
<path d="M341.118 285.514L354.86 282.719C354.86 282.719 343.758 281.865 328.462 281.865C313.167 281.865 301.521 282.719 301.521 282.719L314.953 285.514L328.618 288.076L341.118 285.514Z" fill="#7EBC42"/>
<path d="M447.408 317.501L444.535 276.352C444.38 273.945 444.225 271.694 444.147 269.675C444.069 267.656 443.992 265.56 443.992 263.541C443.526 265.793 443.138 267.734 442.672 269.364C442.284 270.995 441.74 273.013 441.041 275.42L428.697 317.579H415.343L404.24 277.128C403.697 275.187 403.153 273.013 402.532 270.529C401.911 268.045 401.445 265.715 401.057 263.464C401.057 265.793 400.979 268.045 400.902 270.374C400.824 272.703 400.669 275.032 400.513 277.361L397.796 317.579H382.19L389.489 240.56H409.597L419.768 279.147C420.156 280.545 420.467 281.787 420.7 282.874C420.933 283.961 421.166 284.97 421.399 285.902C421.554 286.833 421.787 287.765 421.942 288.619C422.097 289.473 422.33 290.405 422.408 291.414C423.107 287.61 424.038 283.417 425.203 278.914L435.762 240.638H455.715L462.625 317.656H447.408V317.501Z" fill="#231F20"/>
<path d="M486.77 240.482H470.621V317.501H486.77V240.482Z" fill="#231F20"/>
<path d="M549.969 293.122C549.969 296.926 549.27 300.42 547.717 303.448C546.242 306.554 544.146 309.193 541.429 311.445C538.711 313.696 535.45 315.405 531.646 316.569C527.842 317.734 523.571 318.355 518.913 318.355C514.565 318.355 510.217 317.734 505.714 316.569C501.289 315.405 497.096 313.696 493.292 311.523L498.882 299.721C502.376 301.585 505.792 303.06 508.975 304.147C512.158 305.234 515.652 305.777 519.534 305.777C528.308 305.777 532.733 302.361 532.733 295.529C532.733 290.87 529.472 287.61 522.873 285.824L514.565 283.572C510.839 282.563 507.733 281.321 505.404 279.768C502.997 278.293 501.134 276.352 499.814 274.023C497.717 270.606 496.708 266.802 496.708 262.61C496.708 259.193 497.329 256.01 498.649 253.137C499.969 250.265 501.755 247.858 504.162 245.762C506.568 243.743 509.363 242.113 512.702 241.026C516.04 239.939 519.612 239.318 523.571 239.318C528.152 239.318 532.655 240.016 537.081 241.336C541.506 242.656 545.311 244.519 548.649 246.926L541.506 257.718C538.012 255.622 534.985 254.147 532.267 253.293C529.55 252.439 526.832 251.973 524.037 251.973C520.932 251.973 518.447 252.749 516.506 254.38C514.565 256.01 513.556 258.106 513.556 260.591C513.556 262.532 514.177 264.085 515.342 265.172C516.506 266.259 518.68 267.268 521.863 268.122L530.947 270.606C537.158 272.237 541.817 275.032 545.078 278.836C548.339 282.796 549.969 287.532 549.969 293.122Z" fill="#231F20"/>
<path d="M627.453 262.298C625.745 257.484 623.261 253.369 620 250.03C616.739 246.614 612.78 244.052 608.199 242.189C603.54 240.403 598.339 239.471 592.593 239.471C589.332 239.471 586.149 239.782 583.044 240.403C579.938 241.024 577.143 241.956 574.503 243.198C568.214 246.304 563.401 250.962 559.985 257.251C556.568 263.54 554.86 270.838 554.86 279.223C554.86 290.714 558.199 300.186 564.876 307.794C568.214 311.599 572.096 314.394 576.599 316.102C581.025 317.81 586.615 318.664 593.214 318.664C596.863 318.664 600.047 318.353 602.686 317.81C605.326 317.266 607.966 316.335 610.606 315.093C616.972 311.987 621.786 307.329 625.047 301.04C628.308 294.751 630.016 287.22 630.016 278.524C630.016 272.546 629.162 267.111 627.453 262.298ZM592.593 306.63C580.947 306.63 572.329 294.829 572.329 279.145C572.329 263.462 580.792 251.661 592.593 251.661C604.395 251.661 612.857 263.462 612.857 279.145C612.857 294.984 604.162 306.63 592.593 306.63Z" fill="#231F20"/>
</g>
<defs>
<clipPath id="clip0_260_10205">
<rect width="350.087" height="132" fill="white" transform="translate(285 214)"/>
</clipPath>
</defs>
</svg>
